<?xml version="1.0" standalone="no"?><!DOCTYPE svg PUBLIC "-//W3C//DTD SVG 1.1//EN" "http://www.w3.org/Graphics/SVG/1.1/DTD/svg11.dtd"><svg t="1709107238274" class="icon" viewBox="0 0 1024 1024" version="1.1" xmlns="http://www.w3.org/2000/svg" p-id="5048" xmlns:xlink="http://www.w3.org/1999/xlink" width="200" height="200"><path d="M544.53830029 514.58000029V962H480.3083V514.58000029l-108.51000029 86.78999971a32.13 32.13 0 1 1-40.14-50.19000029l160.71000029-128.54999971a32.15999971 32.15999971 0 0 1 40.14 0l160.71000029 128.54999971a32.13 32.13 0 0 1-40.14 50.19000029l-108.51000029-86.78999971zM383.8283 737v64.28999971H319.53830029a257.13 257.13 0 0 1-92.61-497.09999971 289.37999971 289.37999971 0 0 1 570.96 0 257.13 257.13 0 0 1-92.61 497.09999971h-64.29000058V737h64.29000058a192.87 192.87 0 0 0 54.23999942-378l-21.06-6.14999971-1.94999942-21.84000029a225 225 0 0 0-448.2 0l-1.95000029 21.84000029-21.06 6.14999971a192.87 192.87 0 0 0 54.24000029 378h64.28999971z" p-id="5049" fill="#2c2c2c"></path></svg>