<?xml version="1.0" standalone="no"?><!DOCTYPE svg PUBLIC "-//W3C//DTD SVG 1.1//EN" "http://www.w3.org/Graphics/SVG/1.1/DTD/svg11.dtd"><svg t="1709107458505" class="icon" viewBox="0 0 1024 1024" version="1.1" xmlns="http://www.w3.org/2000/svg" p-id="12900" xmlns:xlink="http://www.w3.org/1999/xlink" width="200" height="200"><path d="M613.727381 638.735449c46.172599-26.846438 77.505211-77.348646 77.601402-134.107347 0.068562-40.71633-15.741519-81.205487-44.517913-110.069885-28.77537-28.851095-67.056232-44.162826-108.046808-44.224224-83.946924 0-152.359037 69.573565-152.508439 153.569608-0.12382 84.077907 68.233034 155.224294 152.37234 155.224294l0.178055 0c17.287735 0 33.835619-3.13234 49.345871-8.601912l108.87978 183.65174c2.612501 4.403287 7.275707 6.865361 12.062733 6.865361 2.434445 0 4.882194-0.629333 7.126304-1.969864 6.6607-3.938706 8.848529-12.527314 4.909823-19.174712L613.727381 638.735449zM540.009426 626.125247l0 14.018272-0.738827-14.018272c-68.698638-0.109494-125.101229-56.041364-125.005039-124.670417 0.122797-68.568678 55.978942-124.362402 124.676557-124.362402 33.275871 0.061398 64.841797 13.068643 88.337931 36.626175 23.482831 23.557532 36.694737 54.836933 36.640502 88.070848C663.811056 570.351989 610.034269 626.125247 540.009426 626.125247zM847.80458 463.761346c-7.275707-156.017356-142.142347-280.804431-306.86497-280.804431-145.712663 0-275.176247 95.559403-306.305221 224.086661l-12.07706 0c-87.516216 0-158.718885 69.108984-158.718885 154.048515 0 86.395696 67.673286 154.054655 154.054655 154.054655l252.091482 0c7.740288 0 14.004969-6.277984 14.004969-14.004969 0-7.728008-6.263657-13.991666-14.004969-13.991666l-252.091482 0c-70.680782 0-126.044718-55.377238-126.044718-126.059044 0-69.498864 58.632375-126.038578 130.707924-126.038578l34.889625 0 2.202155-11.344373c23.551392-121.278157 144.480602-212.735126 281.290501-212.735126 153.931858 0 279.170211 119.370715 279.170211 266.088264l0 14.011108 14.004969 0c54.966892 0 98.035804 43.061748 98.035804 98.028641 0 54.980195-43.068911 98.048083-98.035804 98.048083l-84.029812 0c-7.740288 0-14.004969 6.263657-14.004969 13.991666 0 7.726985 6.263657 14.004969 14.004969 14.004969l84.029812 0c70.681806 0 126.045741-55.363935 126.045741-126.044718C960.159508 523.057847 911.81136 470.381114 847.80458 463.761346z" p-id="12901" fill="#2c2c2c"></path></svg>